HIERARCHY
ROOT Hips
{
	OFFSET 0.000000 35.082581 0.000000
	CHANNELS 6 Xposition Yposition Zposition Xrotation Yrotation Zrotation 
	JOINT Spine
	{
		OFFSET 0.000000 6.876099 0.125700
		CHANNELS 3 Xrotation Yrotation Zrotation
		JOINT Spine1
		{
			OFFSET 0.000000 5.730043 0.104720
			CHANNELS 3 Xrotation Yrotation Zrotation
			JOINT Spine1_split
			{
				OFFSET 0.000000 5.730043 0.104720
				CHANNELS 3 Xrotation Yrotation Zrotation
				JOINT Spine2
				{
					OFFSET 0.000000 5.730043 0.104720
					CHANNELS 3 Xrotation Yrotation Zrotation
					JOINT Neck
					{
						OFFSET 0.000000 10.314075 0.188496
						CHANNELS 3 Xrotation Yrotation Zrotation
						JOINT Head
						{
							OFFSET 0.000000 7.643700 -2.377400
							CHANNELS 3 Xrotation Yrotation Zrotation
							JOINT HeadTop_End
							{
								OFFSET 0.000000 43.788605 -13.619600
								CHANNELS 3 Xrotation Yrotation Zrotation
								End Site
								{
									OFFSET 0.000000 0.000000 0.000000
								}
							}
						}
					}
					JOINT LeftShoulder
					{
						OFFSET 2.196100 4.412489 0.087492
						CHANNELS 3 Xrotation Yrotation Zrotation
						JOINT LeftShoulder_split
						{
							OFFSET 2.196100 4.412489 0.087492
							CHANNELS 3 Xrotation Yrotation Zrotation
							JOINT LeftArm
							{
								OFFSET 8.771219 -2.981674 -0.026999
								CHANNELS 3 Xrotation Yrotation Zrotation
								JOINT LeftForeArm
								{
									OFFSET 8.512804 0.000000 -0.000000
									CHANNELS 3 Xrotation Yrotation Zrotation
									JOINT LeftHand
									{
										OFFSET 18.484802 0.000000 -0.000000
										CHANNELS 3 Xrotation Yrotation Zrotation
										JOINT LeftHandThumb1
										{
											OFFSET 2.499420 -1.158070 2.653252
											CHANNELS 3 Xrotation Yrotation Zrotation
											JOINT LeftHandThumb2
											{
												OFFSET 2.370079 -1.368366 1.368366
												CHANNELS 3 Xrotation Yrotation Zrotation
												JOINT LeftHandThumb3
												{
													OFFSET 2.676727 -1.545410 1.545409
													CHANNELS 3 Xrotation Yrotation Zrotation
													JOINT LeftHandThumb4
													{
														OFFSET 1.692226 -0.977005 0.977007
														CHANNELS 3 Xrotation Yrotation Zrotation
														End Site
														{
															OFFSET 0.000000 0.000000 0.000000
														}
													}
												}
											}
										}
										JOINT LeftHandIndex1
										{
											OFFSET 7.924831 -0.457527 2.345128
											CHANNELS 3 Xrotation Yrotation Zrotation
											JOINT LeftHandIndex2
											{
												OFFSET 3.643303 0.000000 0.000000
												CHANNELS 3 Xrotation Yrotation Zrotation
												JOINT LeftHandIndex3
												{
													OFFSET 3.810799 0.000000 0.000000
													CHANNELS 3 Xrotation Yrotation Zrotation
													JOINT LeftHandIndex4
													{
														OFFSET 2.403702 0.000000 0.000000
														CHANNELS 3 Xrotation Yrotation Zrotation
														End Site
														{
															OFFSET 0.000000 0.000000 0.000000
														}
													}
												}
											}
										}
										JOINT LeftHandMiddle1
										{
											OFFSET 8.563995 0.000000 -0.000000
											CHANNELS 3 Xrotation Yrotation Zrotation
											JOINT LeftHandMiddle2
											{
												OFFSET 3.861618 0.000000 0.000000
												CHANNELS 3 Xrotation Yrotation Zrotation
												JOINT LeftHandMiddle3
												{
													OFFSET 3.701603 0.000000 0.000000
													CHANNELS 3 Xrotation Yrotation Zrotation
													JOINT LeftHandMiddle4
													{
														OFFSET 2.322544 0.000000 0.000000
														CHANNELS 3 Xrotation Yrotation Zrotation
														End Site
														{
															OFFSET 0.000000 0.000000 0.000000
														}
													}
												}
											}
										}
										JOINT LeftHandRing1
										{
											OFFSET 8.426460 -0.424637 -3.286992
											CHANNELS 3 Xrotation Yrotation Zrotation
											JOINT LeftHandRing2
											{
												OFFSET 3.126408 0.000000 0.000000
												CHANNELS 3 Xrotation Yrotation Zrotation
												JOINT LeftHandRing3
												{
													OFFSET 3.085026 0.000000 0.000000
													CHANNELS 3 Xrotation Yrotation Zrotation
													JOINT LeftHandRing4
													{
														OFFSET 1.644005 0.000000 0.000000
														CHANNELS 3 Xrotation Yrotation Zrotation
														End Site
														{
															OFFSET 0.000000 0.000000 0.000000
														}
													}
												}
											}
										}
									}
								}
							}
						}
					}
					JOINT RightShoulder
					{
						OFFSET -2.196100 4.412496 0.070690
						CHANNELS 3 Xrotation Yrotation Zrotation
						JOINT RightShoulder_split
						{
							OFFSET -2.196100 4.412496 0.070690
							CHANNELS 3 Xrotation Yrotation Zrotation
							JOINT RightArm
							{
								OFFSET -8.771282 -2.981682 -0.094208
								CHANNELS 3 Xrotation Yrotation Zrotation
								JOINT RightForeArm
								{
									OFFSET -8.494598 0.000000 0.000000
									CHANNELS 3 Xrotation Yrotation Zrotation
									JOINT RightHand
									{
										OFFSET -18.483803 0.000000 0.000001
										CHANNELS 3 Xrotation Yrotation Zrotation
										JOINT RightHandThumb1
										{
											OFFSET -2.527351 -1.008072 2.575253
											CHANNELS 3 Xrotation Yrotation Zrotation
											JOINT RightHandThumb2
											{
												OFFSET -2.321518 -1.340328 1.340329
												CHANNELS 3 Xrotation Yrotation Zrotation
												JOINT RightHandThumb3
												{
													OFFSET -2.657753 -1.534454 1.534455
													CHANNELS 3 Xrotation Yrotation Zrotation
													JOINT RightHandThumb4
													{
														OFFSET -1.807510 -1.043568 1.043567
														CHANNELS 3 Xrotation Yrotation Zrotation
														End Site
														{
															OFFSET 0.000000 0.000000 0.000000
														}
													}
												}
											}
										}
										JOINT RightHandIndex1
										{
											OFFSET -8.811420 0.015533 2.887987
											CHANNELS 3 Xrotation Yrotation Zrotation
											JOINT RightHandIndex2
											{
												OFFSET -3.537502 0.000000 0.000000
												CHANNELS 3 Xrotation Yrotation Zrotation
												JOINT RightHandIndex3
												{
													OFFSET -3.356201 0.000000 0.000000
													CHANNELS 3 Xrotation Yrotation Zrotation
													JOINT RightHandIndex4
													{
														OFFSET -1.933098 0.000000 0.000000
														CHANNELS 3 Xrotation Yrotation Zrotation
														End Site
														{
															OFFSET 0.000000 0.000000 0.000000
														}
													}
												}
											}
										}
										JOINT RightHandMiddle1
										{
											OFFSET -8.178135 0.000000 0.000000
											CHANNELS 3 Xrotation Yrotation Zrotation
											JOINT RightHandMiddle2
											{
												OFFSET -3.901302 0.000000 0.000000
												CHANNELS 3 Xrotation Yrotation Zrotation
												JOINT RightHandMiddle3
												{
													OFFSET -3.909599 0.000000 0.000000
													CHANNELS 3 Xrotation Yrotation Zrotation
													JOINT RightHandMiddle4
													{
														OFFSET -2.376003 0.000000 0.000000
														CHANNELS 3 Xrotation Yrotation Zrotation
														End Site
														{
															OFFSET 0.000000 0.000000 0.000000
														}
													}
												}
											}
										}
										JOINT RightHandRing1
										{
											OFFSET -7.559013 0.014137 -2.865403
											CHANNELS 3 Xrotation Yrotation Zrotation
											JOINT RightHandRing2
											{
												OFFSET -3.449306 0.000000 0.000000
												CHANNELS 3 Xrotation Yrotation Zrotation
												JOINT RightHandRing3
												{
													OFFSET -3.362106 0.000000 0.000000
													CHANNELS 3 Xrotation Yrotation Zrotation
													JOINT RightHandRing4
													{
														OFFSET -2.076401 0.000000 0.000000
														CHANNELS 3 Xrotation Yrotation Zrotation
														End Site
														{
															OFFSET 0.000000 0.000000 0.000000
														}
													}
												}
											}
										}
									}
								}
							}
						}
					}
				}
			}
		}
	}
	JOINT LeftUpLeg
	{
		OFFSET 10.205400 -3.823500 0.155100
		CHANNELS 3 Xrotation Yrotation Zrotation
		JOINT LeftLeg
		{
			OFFSET 0.708757 -12.982077 0.567790
			CHANNELS 3 Xrotation Yrotation Zrotation
			JOINT LeftFoot
			{
				OFFSET -0.708756 -10.717838 -2.184338
				CHANNELS 3 Xrotation Yrotation Zrotation
				JOINT LeftToeBase
				{
					OFFSET 0.108149 -7.191104 7.560241
					CHANNELS 3 Xrotation Yrotation Zrotation
					JOINT LeftToe_End
					{
						OFFSET 0.070230 0.081724 4.490308
						CHANNELS 3 Xrotation Yrotation Zrotation
						End Site
						{
							OFFSET 0.000000 0.000000 0.000000
						}
					}
				}
			}
		}
	}
	JOINT RightUpLeg
	{
		OFFSET -10.205400 -3.823500 0.005500
		CHANNELS 3 Xrotation Yrotation Zrotation
		JOINT RightLeg
		{
			OFFSET -0.708756 -12.982134 0.610632
			CHANNELS 3 Xrotation Yrotation Zrotation
			JOINT RightFoot
			{
				OFFSET 0.708754 -10.717769 -1.945823
				CHANNELS 3 Xrotation Yrotation Zrotation
				JOINT RightToeBase
				{
					OFFSET -0.108140 -7.191069 7.372968
					CHANNELS 3 Xrotation Yrotation Zrotation
					JOINT RightToe_End
					{
						OFFSET -0.070227 0.081735 4.479403
						CHANNELS 3 Xrotation Yrotation Zrotation
						End Site
						{
							OFFSET 0.000000 0.000000 0.000000
						}
					}
				}
			}
		}
	}
}
MOTION
Frames: 5
Frame Time: 0.016667
0.634764 30.362236 -0.499970 -6.074709 -42.881464 -3.766101 5.852728 4.467762 -1.470232 11.835726 9.038089 -3.084132 0.000000 0.000000 0.000000 11.835725 9.038085 -3.084132 -4.303051 -1.272933 0.206307 -6.271933 20.437786 -0.377163 0.000000 0.000000 -0.000000 1.387439 -0.697001 -7.876597 0.000000 0.000000 0.000000 -14.260103 2.393813 -63.277120 9.865062 -47.524897 5.927945 16.172804 0.916335 18.795304 9.163602 4.814141 -5.499001 -0.335377 0.032552 0.783659 -0.000009 0.000001 -0.000012 0.000003 0.000001 -0.000000 -0.902027 -6.980916 -3.808443 0.026593 0.806453 -16.418894 0.000001 0.000002 0.000003 -0.000001 0.000001 -0.000000 1.947548 9.681377 -14.539565 -0.461219 -1.564451 -21.881066 0.000008 0.000006 -0.000003 0.000001 -0.000000 0.000001 2.605804 14.896571 -31.345210 -0.570649 -2.704765 -32.012045 0.000019 0.000011 -0.000006 0.000001 -0.000001 0.000000 1.410944 9.461522 9.792721 0.000000 0.000000 0.000000 1.220048 -24.270719 60.532934 -6.660695 41.858408 8.043841 6.225275 12.322331 11.673263 -8.895796 -4.903195 -0.383692 7.903385 -19.189690 -2.856928 -0.000003 0.000008 0.000005 -0.000000 -0.000003 0.000001 -1.096334 -1.217226 4.525381 0.141693 -1.115738 16.942604 0.000004 0.000001 0.000000 -0.000001 0.000000 0.000001 -0.670806 -2.905549 12.731481 -0.652529 1.804264 30.579512 0.000006 -0.000001 0.000011 -0.000000 0.000002 0.000000 2.418906 -7.406061 21.762689 -0.995465 3.769844 37.430632 -0.000010 0.000012 -0.000005 -0.000002 -0.000002 -0.000002 -38.754729 0.675437 17.953164 41.266172 -15.184692 -0.338811 -0.098257 1.086738 -13.040863 -2.321995 -3.217380 0.803247 0.000000 0.000001 -0.000000 7.906517 -14.580236 -20.692611 34.891888 -4.459094 0.507945 -32.411218 -10.400286 23.877395 -1.785012 -0.356701 0.333221 -0.000000 0.000002 0.000000 
0.635733 30.363544 -0.496874 -6.047961 -42.959192 -3.742279 5.847772 4.472594 -1.479384 11.826964 9.047788 -3.104681 0.000000 0.000000 0.000000 11.826962 9.047798 -3.104676 -4.348297 -1.296190 0.185084 -6.207246 20.521770 -0.394173 -0.000000 0.000000 -0.000000 1.387383 -0.696824 -7.876409 0.000000 0.000000 0.000000 -14.262257 2.393776 -63.250687 9.848918 -47.561046 5.920523 16.146017 0.904688 18.680750 9.281179 4.985907 -5.486652 -0.249606 0.224368 0.816297 -0.000009 0.000001 -0.000011 -0.000001 -0.000000 -0.000004 -0.895030 -6.979098 -3.983059 0.019727 0.784213 -16.611455 0.000006 0.000002 0.000001 0.000001 -0.000001 0.000002 1.943544 9.666285 -14.728984 -0.467844 -1.583360 -22.065392 0.000002 0.000007 -0.000003 0.000000 -0.000000 -0.000001 2.597681 14.883728 -31.520298 -0.579621 -2.719024 -32.210496 0.000015 0.000013 -0.000004 0.000000 -0.000001 -0.000000 1.398785 9.503317 9.802031 0.000000 0.000000 0.000000 1.235475 -24.253389 60.503605 -6.635596 41.828625 8.061794 6.205744 12.287861 11.583852 -8.744234 -4.912962 -0.267393 7.890842 -19.193899 -2.875772 -0.000008 0.000009 0.000007 0.000000 -0.000000 0.000001 -1.094947 -1.224546 4.426565 0.143559 -1.121791 16.879892 0.000003 0.000001 -0.000001 -0.000000 0.000002 -0.000000 -0.667438 -2.920390 12.633023 -0.649449 1.799055 30.481881 0.000005 -0.000003 0.000013 -0.000002 -0.000001 0.000001 2.423705 -7.418815 21.676041 -0.988809 3.761192 37.329374 -0.000009 0.000012 -0.000000 0.000000 -0.000000 -0.000001 -38.722436 0.676778 17.956410 41.316036 -15.109857 -0.313715 -0.182948 1.100738 -13.059644 -2.321988 -3.217378 0.803251 0.000000 0.000001 0.000000 7.773283 -14.565952 -20.724974 34.973690 -4.383569 0.449066 -32.426193 -10.402502 23.871779 -1.785008 -0.356714 0.333210 -0.000000 0.000001 0.000000 
0.635318 30.368580 -0.495662 -6.017923 -43.024892 -3.709511 5.843910 4.469240 -1.486558 11.819974 9.041229 -3.121164 0.000000 0.000000 0.000000 11.819974 9.041249 -3.121166 -4.387864 -1.297850 0.163177 -6.136322 20.653464 -0.443795 -0.000000 0.000000 0.000000 1.389714 -0.709919 -7.876739 0.000000 0.000000 0.000000 -14.244244 2.394036 -63.227239 9.904570 -47.573135 5.947257 16.178293 0.914631 18.773777 9.414849 5.159739 -5.469219 -0.170207 0.412547 0.856138 -0.000004 0.000001 -0.000015 -0.000001 0.000001 0.000001 -0.885490 -6.977781 -4.153073 0.012748 0.761545 -16.807786 0.000003 0.000003 0.000001 -0.000000 -0.000000 0.000002 1.939540 9.651389 -14.916319 -0.474084 -1.601150 -22.238804 0.000003 0.000005 0.000001 0.000000 -0.000000 -0.000001 2.589825 14.871391 -31.688854 -0.588527 -2.733070 -32.406024 0.000012 0.000013 -0.000003 0.000000 -0.000001 -0.000002 1.393270 9.523883 9.813706 0.000000 0.000000 0.000000 1.197311 -24.211957 60.500702 -6.605041 41.712706 8.037621 6.258869 12.244929 11.498257 -8.538366 -4.895331 -0.106996 7.856120 -19.205505 -2.927864 -0.000009 0.000005 0.000006 -0.000002 -0.000001 0.000003 -1.093478 -1.232163 4.323053 0.143930 -1.122946 16.867296 0.000002 -0.000002 -0.000002 0.000001 -0.000000 0.000001 -0.663458 -2.937938 12.524953 -0.646088 1.793341 30.374538 0.000007 -0.000004 0.000010 0.000002 0.000000 0.000001 2.430993 -7.439393 21.599216 -0.980319 3.750010 37.198938 -0.000007 0.000011 -0.000003 0.000000 -0.000001 -0.000001 -38.677541 0.681436 17.949165 41.293271 -15.035727 -0.285998 -0.217051 1.107617 -13.101336 -2.321990 -3.217362 0.803252 0.000001 -0.000002 -0.000000 7.668578 -14.544756 -20.747104 35.015863 -4.345650 0.389708 -32.419059 -10.403285 23.880274 -1.785023 -0.356748 0.333228 -0.000000 0.000001 0.000000 
0.635400 30.371075 -0.492684 -5.967748 -43.096721 -3.665606 5.838373 4.461471 -1.491367 11.809244 9.026347 -3.132223 0.000000 0.000000 0.000000 11.809252 9.026351 -3.132226 -4.418634 -1.266527 0.119656 -6.071689 20.811250 -0.506489 0.000000 0.000000 -0.000000 1.389220 -0.712568 -7.884082 0.000000 0.000000 0.000000 -14.233990 2.393094 -63.219227 9.867906 -47.596286 5.922696 16.138905 0.892859 18.667033 9.527667 5.320430 -5.445003 -0.082364 0.613077 0.892588 -0.000007 0.000004 -0.000008 -0.000004 -0.000002 -0.000004 -0.878621 -6.976106 -4.318741 0.006558 0.741427 -16.982075 0.000006 0.000000 0.000003 -0.000001 -0.000002 0.000002 1.935619 9.636926 -15.098096 -0.480072 -1.617963 -22.403396 0.000002 0.000008 -0.000000 0.000001 -0.000001 0.000001 2.581112 14.857806 -31.874741 -0.595917 -2.743335 -32.579504 0.000012 0.000010 -0.000007 -0.000003 -0.000001 -0.000001 1.393291 9.550957 9.804868 0.000000 0.000000 0.000000 1.182795 -24.200774 60.514370 -6.580808 41.627271 8.001262 6.320986 12.185665 11.442673 -8.394764 -4.917737 0.003182 7.849060 -19.207860 -2.938456 -0.000004 0.000005 -0.000000 0.000000 0.000000 0.000003 -1.091907 -1.240397 4.212024 0.146045 -1.129843 16.796169 0.000004 0.000005 -0.000000 -0.000000 0.000001 0.000001 -0.661710 -2.945911 12.408751 -0.642750 1.787649 30.268106 0.000007 -0.000002 0.000010 0.000001 -0.000002 0.000003 2.436778 -7.454684 21.485134 -0.971947 3.739012 37.070667 -0.000008 0.000010 -0.000001 -0.000000 -0.000001 0.000001 -38.662829 0.683925 17.954762 41.299746 -14.970897 -0.274918 -0.267736 1.117099 -13.128500 -2.321992 -3.217349 0.803259 0.000000 0.000003 -0.000000 7.538195 -14.516659 -20.776676 35.079592 -4.299889 0.333274 -32.421317 -10.409137 23.890321 -1.790271 -0.360782 0.338253 -0.000000 0.000000 -0.000000 
0.635133 30.374817 -0.491384 -5.923028 -43.161113 -3.623567 5.835646 4.446915 -1.495764 11.803859 8.997830 -3.142078 0.000000 0.000000 0.000000 11.803860 8.997832 -3.142081 -4.445936 -1.219822 0.079430 -6.011191 21.010849 -0.587840 0.000001 0.000000 0.000000 1.389181 -0.727276 -7.903884 0.000000 0.000000 0.000000 -14.193249 2.416434 -63.198204 9.925554 -47.632674 5.957023 16.172604 0.897520 18.734157 9.612840 5.471861 -5.407985 0.016392 0.828469 0.923188 -0.000011 0.000003 -0.000013 -0.000006 0.000005 -0.000003 -0.875232 -6.973897 -4.482519 0.001032 0.723427 -17.138036 0.000003 0.000003 0.000005 0.000001 -0.000001 0.000000 1.931763 9.622893 -15.274516 -0.485799 -1.634055 -22.559167 0.000001 0.000004 -0.000001 -0.000001 0.000001 -0.000002 2.572652 14.846051 -32.076351 -0.602602 -2.753004 -32.732326 0.000015 0.000016 -0.000004 0.000002 -0.000001 -0.000000 1.394628 9.568508 9.789810 0.000000 0.000000 0.000000 1.143571 -24.160797 60.514055 -6.548426 41.493051 7.985896 6.402215 12.095235 11.345553 -8.318022 -4.994409 0.056199 7.878556 -19.196937 -2.904259 -0.000007 0.000007 0.000003 -0.000001 -0.000002 0.000003 -1.090323 -1.248969 4.100321 0.149832 -1.142148 16.668238 0.000002 0.000002 0.000001 0.000000 0.000001 0.000001 -0.662044 -2.944655 12.279132 -0.639599 1.782189 30.166309 0.000005 -0.000002 0.000012 0.000000 0.000002 0.000002 2.436564 -7.463092 21.336558 -0.964581 3.730786 36.948076 -0.000007 0.000010 -0.000001 -0.000001 -0.000001 0.000001 -38.637834 0.683110 17.947510 41.288449 -14.896986 -0.249002 -0.306697 1.121152 -13.168118 -2.321988 -3.217335 0.803249 0.000000 -0.000001 0.000000 7.421954 -14.483643 -20.796932 35.130798 -4.267078 0.273009 -32.416785 -10.416707 23.907469 -1.795593 -0.370143 0.345663 0.000000 -0.000000 -0.000000 
